<svg xmlns="http://www.w3.org/2000/svg" viewBox="0 0 90 90">
    <g fill="none">
      <g fill="none">
        <path
        d="M29.362 32.811L23.257 32.778C21.849 32.778 20.991 33.075 20.683 33.669C20.507 33.999 20.397 34.285 20.353 34.527C20.331 34.769 20.32 35.154 20.32 35.682V54.03C20.32 54.976 20.452 55.68 20.716 56.142C21.046 56.692 21.882 56.967 23.224 56.967H29.263C32.629 56.967 35.489 55.768 37.843 53.37C40.219 50.972 41.407 48.101 41.407 44.757C41.407 41.391 40.197 38.564 37.777 36.276C35.357 33.966 32.552 32.811 29.362 32.811ZM33.652 49.377C32.376 50.543 30.946 51.126 29.362 51.126H26.161V38.652H29.329C31.001 38.652 32.453 39.257 33.685 40.467C34.939 41.655 35.566 43.14 35.566 44.922C35.566 46.704 34.928 48.189 33.652 49.377ZM70.324 34.626C70.302 34.362 70.203 34.065 70.027 33.735C69.719 33.141 68.861 32.844 67.453 32.844C66.067 32.844 65.187 33.141 64.813 33.735C63.559 35.319 61.062 38.586 57.322 43.536L49.831 33.702L49.633 33.504C49.501 33.35 49.215 33.207 48.775 33.075C48.357 32.921 47.851 32.844 47.257 32.844C45.871 32.844 45.013 33.13 44.683 33.702C44.507 34.032 44.397 34.329 44.353 34.593C44.331 34.835 44.32 35.209 44.32 35.715V54.03C44.32 54.558 44.331 54.954 44.353 55.218C44.397 55.482 44.507 55.768 44.683 56.076C45.013 56.67 45.849 56.967 47.191 56.967C48.577 56.967 49.435 56.67 49.765 56.076C49.941 55.768 50.04 55.493 50.062 55.251C50.106 54.987 50.128 54.602 50.128 54.096V42.975C50.238 43.107 50.942 44.075 52.24 45.879C53.538 47.661 54.407 48.827 54.847 49.377L55.111 49.74C55.287 49.96 55.573 50.191 55.969 50.433C56.387 50.653 56.838 50.763 57.322 50.763C57.828 50.763 58.29 50.642 58.708 50.4C59.148 50.136 59.423 49.938 59.533 49.806C59.643 49.652 59.841 49.388 60.127 49.014C60.413 48.64 61.084 47.716 62.14 46.242C63.196 44.746 63.999 43.657 64.549 42.975V54.03C64.549 54.8 64.604 55.372 64.714 55.746C64.824 56.032 64.978 56.252 65.176 56.406C65.374 56.56 65.66 56.692 66.034 56.802C66.408 56.912 66.914 56.967 67.552 56.967C68.19 56.967 68.718 56.901 69.136 56.769C69.972 56.505 70.39 55.614 70.39 54.096V35.781C70.39 35.275 70.368 34.89 70.324 34.626Z" 
        fill="currentColor"
        />
      </g>
      <path
        stroke="currentColor"
        strokeWidth="5"
        strokeLinecap="round"
        strokeLinejoin="round"
        d="M15.859 15.859L45 3.78837L74.141 15.859L86.2116 45L74.141 74.141L45 86.2116L15.859 74.141L3.78837 45L15.859 15.859Z" 

      />
    </g>
  </svg>